<?xml version="1.0" encoding="UTF-8"?>
<svg version="1.1" xmlns="http://www.w3.org/2000/svg" width="100" height="100">
<path d="M0 0 C7.43000472 5.05008134 12.14213476 11.18792357 14 20 C15.00319441 28.30513404 12.61138559 36.08292161 8 43 C8.72469482 43.07275146 9.44938965 43.14550293 10.19604492 43.22045898 C13.78226922 44.21748242 15.27419994 45.81675994 17.86328125 48.47265625 C18.74951172 49.37177734 19.63574219 50.27089844 20.54882812 51.19726562 C21.46083984 52.14279297 22.37285156 53.08832031 23.3125 54.0625 C24.25232276 55.02239821 25.19306889 55.98139329 26.13476562 56.93945312 C28.43242024 59.28423912 30.7202276 61.63784527 33 64 C31.02 66.31 29.04 68.62 27 71 C21.81865939 66.64740438 16.88238886 62.12393858 12.0625 57.375 C11.37865234 56.72015625 10.69480469 56.0653125 9.99023438 55.390625 C9.34505859 54.75382812 8.69988281 54.11703125 8.03515625 53.4609375 C7.4512915 52.89165527 6.86742676 52.32237305 6.26586914 51.73583984 C5 50 5 50 5 46 C4.31292969 46.34933594 3.62585937 46.69867188 2.91796875 47.05859375 C1.56638672 47.74115234 1.56638672 47.74115234 0.1875 48.4375 C-0.70582031 48.88996094 -1.59914062 49.34242187 -2.51953125 49.80859375 C-8.93686064 52.89093306 -15.73479102 52.87192021 -22.5625 51 C-29.42150752 48.40963014 -35.09976911 43.29380654 -38.5 36.8125 C-41.79077837 29.12404508 -41.77204159 21.96066915 -38.90625 14.1328125 C-36.05252132 7.41670967 -31.33464932 1.86069352 -24.5703125 -1.04296875 C-15.99425784 -3.81910802 -8.26768056 -3.7683483 0 0 Z " fill="#E2E2E2" transform="translate(53,15)"/>
</svg>